<svg xmlns="http://www.w3.org/2000/svg" width="160" height="160" viewBox="0 0 160 160" version="1.1"><path d="M 21.667 10.667 C 21.300 11.033, 21 17.749, 21 25.590 L 21 39.847 23.533 42.857 C 27.035 47.018, 31.719 48.318, 41.375 47.809 L 49.500 47.380 52.301 45.542 C 53.842 44.530, 55.857 42.307, 56.779 40.602 L 58.455 37.500 58.823 23.750 L 59.192 10 51.596 10 L 44 10 44 22.300 C 44 35.579, 43.508 37, 38.907 37 C 35.301 37, 35 35.838, 35 21.918 L 35 10 28.667 10 C 25.183 10, 22.033 10.300, 21.667 10.667 M 71 29 L 71 48 78 48 L 85 48 85 39.500 C 85 30.678, 85.560 29.464, 87.901 33.214 C 88.662 34.431, 91.551 38.256, 94.321 41.714 L 99.359 48 105.179 48 L 111 48 111 29 L 111 10 104.040 10 L 97.081 10 96.790 18.217 L 96.500 26.434 90.589 18.217 L 84.679 10 77.839 10 L 71 10 71 29 M 124.228 28.704 L 124.500 47.500 131.272 47.796 L 138.044 48.092 137.772 29.296 L 137.500 10.500 130.728 10.204 L 123.956 9.908 124.228 28.704 M 21 80 L 21 99 28.500 99 L 36 99 36 93.500 L 36 88 45.500 88 L 55 88 55 83 L 55 78 45.500 78 L 36 78 36 75 L 36 72 47 72 L 58 72 58 66.500 L 58 61 39.500 61 L 21 61 21 80 M 71 80 L 71 99 78 99 L 85 99 85 93.934 L 85 88.867 87.724 89.184 L 90.447 89.500 92.003 94 L 93.558 98.500 101.813 98.791 L 110.068 99.082 109.123 97.291 C 108.603 96.306, 107.425 93.362, 106.505 90.748 C 105.586 88.135, 103.902 85.344, 102.763 84.547 L 100.693 83.097 103.236 81.938 C 110.727 78.525, 109.126 65.868, 100.781 62.529 L 96.960 61 83.980 61 L 71 61 71 80 M 85.713 71.621 C 85.321 72.013, 85 73.608, 85 75.167 L 85 78 88.531 78 C 92.407 78, 94.042 75.885, 92.308 73.114 C 91.237 71.402, 86.910 70.423, 85.713 71.621 M 21.227 131.250 L 21.500 149.500 40.250 149.772 L 59 150.044 59 131.522 L 59 113 39.977 113 L 20.955 113 21.227 131.250" stroke="none" fill="#1c1c1c" fill-rule="evenodd"/><path d="M 0 80.006 L 0 160.012 80.250 159.756 L 160.500 159.500 160.756 79.750 L 161.012 0 80.506 0 L 0 0 0 80.006 M 0.477 80.500 C 0.477 124.500, 0.600 142.354, 0.750 120.176 C 0.900 97.997, 0.900 61.997, 0.750 40.176 C 0.599 18.354, 0.476 36.500, 0.477 80.500 M 21.667 10.667 C 21.300 11.033, 21 17.749, 21 25.590 L 21 39.847 23.533 42.857 C 27.035 47.018, 31.719 48.318, 41.375 47.809 L 49.500 47.380 52.301 45.542 C 53.842 44.530, 55.857 42.307, 56.779 40.602 L 58.455 37.500 58.823 23.750 L 59.192 10 51.596 10 L 44 10 44 22.300 C 44 35.579, 43.508 37, 38.907 37 C 35.301 37, 35 35.838, 35 21.918 L 35 10 28.667 10 C 25.183 10, 22.033 10.300, 21.667 10.667 M 71 29 L 71 48 78 48 L 85 48 85 39.500 C 85 30.678, 85.560 29.464, 87.901 33.214 C 88.662 34.431, 91.551 38.256, 94.321 41.714 L 99.359 48 105.179 48 L 111 48 111 29 L 111 10 104.040 10 L 97.081 10 96.790 18.217 L 96.500 26.434 90.589 18.217 L 84.679 10 77.839 10 L 71 10 71 29 M 124.228 28.704 L 124.500 47.500 131.272 47.796 L 138.044 48.092 137.772 29.296 L 137.500 10.500 130.728 10.204 L 123.956 9.908 124.228 28.704 M 21 80 L 21 99 28.500 99 L 36 99 36 93.500 L 36 88 45.500 88 L 55 88 55 83 L 55 78 45.500 78 L 36 78 36 75 L 36 72 47 72 L 58 72 58 66.500 L 58 61 39.500 61 L 21 61 21 80 M 71 80 L 71 99 78 99 L 85 99 85 93.934 L 85 88.867 87.724 89.184 L 90.447 89.500 92.003 94 L 93.558 98.500 101.813 98.791 L 110.068 99.082 109.123 97.291 C 108.603 96.306, 107.425 93.362, 106.505 90.748 C 105.586 88.135, 103.902 85.344, 102.763 84.547 L 100.693 83.097 103.236 81.938 C 110.727 78.525, 109.126 65.868, 100.781 62.529 L 96.960 61 83.980 61 L 71 61 71 80 M 85.713 71.621 C 85.321 72.013, 85 73.608, 85 75.167 L 85 78 88.531 78 C 92.407 78, 94.042 75.885, 92.308 73.114 C 91.237 71.402, 86.910 70.423, 85.713 71.621 M 21.227 131.250 L 21.500 149.500 40.250 149.772 L 59 150.044 59 131.522 L 59 113 39.977 113 L 20.955 113 21.227 131.250" stroke="none" fill="#f6f6f6" fill-rule="evenodd"/></svg>